# xmcd CD database file
#
# Track frame offsets:
#	150
#	14561
#	25692
#	50768
#	67756
#	79264
#	94855
#	104247
#	123615
#	139759
#	150236
#	168153
#
# Disc length: 2442 seconds
#
# Revision: 0
# Processed by: cddbd v1.5.2PL0 Copyright (c) Steve Scherf et al.
# Submitted via: CDex 1.51
#
DISCID=9a09880c
DTITLE=Joana Veiga - Fado em Mim guardado
DYEAR=1900
DGENRE=Blues
TTITLE0=Fado em mim Guardado
TTITLE1=Quadras soltas sobre Fado
TTITLE2=Partiste sem razão
TTITLE3=Quem sou eu, não sei
TTITLE4=Chora tu minha guitarra
TTITLE5=Meu Desejo
TTITLE6=Cidade Imortal
TTITLE7=Linho de Seda
TTITLE8=Fado Certo
TTITLE9=Barcos do Tejo
TTITLE10=Eterna Primavera
TTITLE11=Ritual (Guitarrada)
EXTD=
EXTT0=
EXTT1=
EXTT2=
EXTT3=
EXTT4=
EXTT5=
EXTT6=
EXTT7=
EXTT8=
EXTT9=
EXTT10=
EXTT11=
PLAYORDER=
